<svg id="Accounting" height="512" viewBox="0 0 64 64" width="512" xmlns="http://www.w3.org/2000/svg"><circle cx="17" cy="17" fill="#fbdf63" r="10"/><path d="m33 39h-18-12v22h12 18 12v-22z" fill="#16bb87"/><path d="m37 43h-26a4 4 0 0 1 -4 4v6a4 4 0 0 1 4 4h26a4 4 0 0 1 4-4v-6a4 4 0 0 1 -4-4z" fill="#0beaa2"/><circle cx="24" cy="50" fill="#fbdf63" r="7"/><rect fill="#016ca9" height="43" rx="2" width="34" x="27" y="3"/><g fill="#bce8fe"><path d="m31 7h26v6h-26z"/><path d="m31 16h6v6h-6z"/><path d="m41 16h6v6h-6z"/><path d="m41 26h6v6h-6z"/><path d="m51 16h6v6h-6z"/><path d="m31 26h6v6h-6z"/></g><path d="m51 26h6v16h-6z" fill="#ff6b81"/><path d="m31 36h6v6h-6z" fill="#bce8fe"/><path d="m61 36.5v13.5l-3 3.67v7.33h-14v-5.33l-3-3.67v-4l-5.58-4.03a2.506 2.506 0 0 1 3.22-3.84l2.36 1.34v-12.97a2.5 2.5 0 0 1 5 0v7a2.5 2.5 0 0 1 5 0 2.5 2.5 0 0 1 5 0v1a2.5 2.5 0 0 1 5 0z" fill="#ffcbbe"/><path d="m42 56h18v5h-18z" fill="#e0e0e2"/><path d="m7 33h20v6h-20z" fill="#fbdf63"/><path d="m7 27h20v6h-20z" fill="#f6c850"/><path d="m19 14a1 1 0 0 1 1 1h2a3 3 0 0 0 -3-3h-1v-2h-2v2h-1a3 3 0 0 0 0 6h1v2h-1a1 1 0 0 1 -1-1h-2a3 3 0 0 0 3 3h1v2h2v-2h1a3 3 0 0 0 0-6h-1v-2zm0 4a1 1 0 0 1 0 2h-1v-2zm-3-2h-1a1 1 0 0 1 0-2h1z" fill="#ff9811"/></svg>